<?xml version="1.0" encoding="UTF-8"?>
<!-- Generator: visioncortex VTracer 0.6.12 -->
<svg version="1.1" xmlns="http://www.w3.org/2000/svg" width="500" height="118">
<path d="M0 0 C0.89 0.49 1.77 0.99 2.69 1.5 C3.02 0.84 3.35 0.18 3.69 -0.5 C8.64 -0.5 13.59 -0.5 18.69 -0.5 C18.76 7.38 18.82 15.27 18.85 23.15 C18.87 25.83 18.89 28.52 18.91 31.2 C18.95 35.05 18.97 38.91 18.98 42.76 C19 43.96 19.01 45.16 19.03 46.4 C19.03 47.52 19.03 48.64 19.03 49.79 C19.03 50.78 19.04 51.76 19.05 52.77 C18.62 56 17.57 57.88 15.69 60.5 C13.94 61.56 13.94 61.56 11.69 62.5 C11.14 62.83 11.14 62.83 8.38 64.5 C0.45 68.98 -8.22 69.75 -17.1 67.93 C-21.77 66.59 -26.05 64.85 -30.31 62.5 C-30.97 62.17 -31.63 61.84 -32.31 61.5 C-31.98 60.51 -31.65 59.52 -31.31 58.5 C-30.98 58.34 -30.98 58.34 -29.31 57.5 C-28.93 55.84 -28.6 54.18 -28.31 52.5 C-27.98 51.84 -27.65 51.18 -27.31 50.5 C-23.94 50.92 -21.53 51.9 -18.62 53.56 C-13.99 55.99 -9.46 56.29 -4.31 55.5 C-1.28 53.48 -0.59 52.74 0.69 49.5 C0.69 48.51 0.69 47.52 0.69 46.5 C-0.3 46.83 -1.29 47.16 -2.31 47.5 C-12.19 50.23 -18.97 47.08 -27.81 42.81 C-31.35 39.54 -31.73 36.16 -32.31 31.5 C-32.97 31.5 -33.63 31.5 -34.31 31.5 C-34.17 28.77 -34.02 26.04 -33.88 23.31 C-33.84 22.54 -33.8 21.77 -33.76 20.98 C-33.17 10.56 -33.17 10.56 -31 7.88 C-29.14 6.36 -27.29 4.87 -25.38 3.44 C-24.71 2.93 -24.04 2.42 -23.35 1.9 C-16.59 -2.76 -7.62 -3.29 0 0 Z M-13.31 12.5 C-15.3 15.49 -16.25 18.1 -17.31 21.5 C-17.64 21.5 -17.97 21.5 -18.31 21.5 C-17.22 30.97 -17.22 30.97 -13.12 34.25 C-8.67 36.23 -4.96 36.06 -0.38 34.5 C0.31 34.17 0.99 33.84 1.69 33.5 C1.69 32.51 1.69 31.52 1.69 30.5 C1.81 29.28 1.92 28.07 2.05 26.81 C2.11 26.11 2.17 25.42 2.24 24.7 C2.37 23.23 2.52 21.77 2.68 20.3 C2.86 18.19 2.86 18.19 2.69 14.5 C-1.52 9.86 -8.01 9.47 -13.31 12.5 Z M-32.31 12.5 C-31.31 14.5 -31.31 14.5 -31.31 14.5 Z M-17.31 17.5 C-16.31 19.5 -16.31 19.5 -16.31 19.5 Z M2.69 17.5 C2.69 22.12 2.69 26.74 2.69 31.5 C3.02 31.5 3.35 31.5 3.69 31.5 C3.69 26.88 3.69 22.26 3.69 17.5 C3.36 17.5 3.03 17.5 2.69 17.5 Z M2.69 45.5 C3.69 48.5 3.69 48.5 3.69 48.5 Z M1.69 49.5 C2.69 51.5 2.69 51.5 2.69 51.5 Z M16.69 53.5 C17.69 55.5 17.69 55.5 17.69 55.5 Z " fill="#121212" transform="translate(174.3125,34.5)"/>
<path d="M0 0 C-1 3 -1 3 -2.82 3.96 C-3.54 4.31 -4.26 4.65 -5 5 C-6.33 6.15 -7.61 7.35 -8.86 8.59 C-9.56 9.29 -10.26 9.99 -10.99 10.72 C-11.35 11.08 -11.35 11.08 -13.19 12.94 C-13.92 13.67 -14.66 14.4 -15.42 15.15 C-16.12 15.85 -16.82 16.55 -17.54 17.28 C-18.18 17.92 -18.82 18.56 -19.48 19.22 C-21 21 -21 21 -22 24 C-22.62 24.29 -23.24 24.58 -23.88 24.88 C-26 26 -26 26 -27.35 28.27 C-30.38 33.28 -34.81 37.14 -38.94 41.25 C-39.84 42.17 -40.75 43.1 -41.69 44.05 C-42.56 44.92 -43.44 45.8 -44.34 46.7 C-45.14 47.5 -45.94 48.3 -46.76 49.13 C-49 51 -49 51 -50.93 51.43 C-53.45 52.12 -54.48 53.11 -56.3 54.96 C-56.92 55.58 -57.54 56.2 -58.18 56.84 C-58.84 57.51 -59.49 58.19 -60.17 58.88 C-60.85 59.57 -61.54 60.25 -62.24 60.96 C-64.42 63.15 -66.58 65.36 -68.75 67.56 C-70.22 69.05 -71.7 70.54 -73.18 72.03 C-76.79 75.68 -80.4 79.34 -84 83 C-84.31 82.84 -84.31 82.84 -85.88 82.05 C-88 81 -88 81 -89.94 80.25 C-93.1 78.34 -94.92 76.03 -97 73 C-96.94 70.38 -96.94 70.38 -96 68 C-95.87 67.64 -95.87 67.64 -95.19 65.81 C-93.74 63.61 -92.34 63.13 -90 62 C-89.67 61.01 -89.34 60.02 -89 59 C-88.67 58.84 -88.67 58.84 -87 58 C-86.34 57.34 -85.68 56.68 -85 56 C-82.88 53.88 -80.77 51.77 -78.62 49.69 C-76 47 -76 47 -74.15 44.65 C-71.91 41.89 -69.53 39.42 -67.02 36.92 C-66.08 35.99 -65.15 35.06 -64.18 34.1 C-63.21 33.13 -62.23 32.16 -61.25 31.19 C-60.26 30.2 -59.26 29.21 -58.27 28.22 C-55.85 25.81 -53.43 23.4 -51 21 C-51.93 19.89 -52.87 18.78 -53.8 17.68 C-54.32 17.06 -54.84 16.45 -55.38 15.81 C-58.46 12.37 -61.55 9.48 -66 8 C-66.33 7.01 -66.66 6.02 -67 5 C-60.93 2.94 -55.11 2.49 -48.73 2.15 C-47.65 2.08 -46.58 2.02 -45.47 1.96 C-43.2 1.82 -40.93 1.69 -38.66 1.57 C-35.21 1.38 -31.76 1.17 -28.31 0.97 C-26.1 0.84 -23.88 0.71 -21.67 0.59 C-20.65 0.53 -19.63 0.47 -18.58 0.41 C-12.38 0.07 -6.21 -0.07 0 0 Z M-50 21 C-49 23 -49 23 -49 23 Z " fill="#0C0C0C" transform="translate(97,1)"/>
<path d="M0 0 C0.19 13.33 -0.41 26.62 -1 39.94 C-1.1 42.18 -1.19 44.43 -1.29 46.67 C-1.52 52.11 -1.76 57.56 -2 63 C-5.54 62.24 -7.12 61.24 -9.67 58.62 C-10.34 57.95 -11 57.27 -11.68 56.58 C-12.37 55.87 -13.05 55.17 -13.75 54.44 C-14.45 53.73 -15.14 53.02 -15.86 52.28 C-17.58 50.53 -19.29 48.77 -21 47 C-26.95 51.91 -32.31 57.26 -37.7 62.77 C-39.09 64.18 -40.48 65.6 -41.87 67.01 C-45.28 70.46 -48.68 73.91 -52.06 77.39 C-53.97 79.34 -55.89 81.3 -57.82 83.24 C-59.62 85.07 -61.42 86.9 -63.21 88.75 C-64.03 89.57 -64.85 90.39 -65.69 91.24 C-66.4 91.97 -67.12 92.7 -67.85 93.45 C-70.48 95.35 -71.82 95.47 -75 95 C-77.31 93.12 -77.31 93.12 -79 91 C-79 90.34 -79 89.68 -79 89 C-79.99 88.67 -80.98 88.34 -82 88 C-82.33 87.01 -82.66 86.02 -83 85 C-83.66 85 -84.32 85 -85 85 C-83.37 80.87 -80.38 78.13 -77.28 75.09 C-76.7 74.5 -76.11 73.92 -75.51 73.33 C-74.25 72.07 -72.98 70.81 -71.71 69.56 C-69.7 67.57 -67.7 65.58 -65.69 63.59 C-61.45 59.37 -57.19 55.15 -52.94 50.94 C-48 46.05 -43.07 41.16 -38.15 36.26 C-36.17 34.3 -34.19 32.34 -32.21 30.39 C-31 29.19 -29.8 27.99 -28.59 26.78 C-28.04 26.24 -27.48 25.7 -26.91 25.14 C-24.54 22.77 -23.08 21.23 -22 18 C-21.68 17.85 -21.68 17.85 -20.06 17.06 C-18 16 -18 16 -17 14 C-15.73 11.45 -14.51 11.25 -12 10 C-10.62 8.37 -9.28 6.71 -8 5 C-3 0 -3 0 0 0 Z " fill="#F7C210" transform="translate(118,23)"/>
<path d="M0 0 C1.17 0.02 2.34 0.04 3.55 0.05 C3.99 0.07 3.99 0.07 6.25 0.12 C6.39 2.56 6.48 5 6.56 7.44 C6.6 8.13 6.65 8.82 6.69 9.53 C6.74 11.55 6.74 11.55 6.25 15.12 C4.6 16.16 2.93 17.15 1.25 18.12 C-1.09 20.15 -3.25 22.36 -5.44 24.55 C-6.09 25.2 -6.74 25.85 -7.41 26.51 C-9.55 28.65 -11.69 30.79 -13.82 32.93 C-15.31 34.42 -16.8 35.91 -18.29 37.4 C-21.41 40.51 -24.53 43.63 -27.64 46.76 C-31.63 50.76 -35.63 54.75 -39.64 58.74 C-42.72 61.81 -45.79 64.89 -48.86 67.97 C-50.33 69.44 -51.81 70.91 -53.28 72.39 C-55.34 74.44 -57.4 76.5 -59.45 78.57 C-60.06 79.18 -60.67 79.78 -61.3 80.41 C-61.86 80.97 -62.42 81.54 -63 82.12 C-63.49 82.61 -63.97 83.09 -64.47 83.59 C-65.92 85.32 -66.75 87.11 -67.75 89.12 C-69.48 91.1 -71.21 92.96 -73.06 94.81 C-73.54 95.31 -74.01 95.81 -74.5 96.32 C-76.57 98.41 -78.56 100.03 -81.18 101.36 C-85.52 100.96 -87.72 97.78 -90.56 94.69 C-91.16 94.06 -91.76 93.44 -92.37 92.79 C-93.85 91.25 -95.3 89.69 -96.75 88.12 C-96.41 87.87 -96.41 87.87 -94.69 86.55 C-91.18 83.65 -87.99 80.51 -84.77 77.29 C-84.43 76.95 -84.43 76.95 -82.71 75.24 C-80.46 73 -78.22 70.77 -75.98 68.53 C-74.42 66.97 -72.86 65.41 -71.3 63.86 C-68.04 60.6 -64.78 57.34 -61.52 54.08 C-57.34 49.9 -53.15 45.72 -48.95 41.54 C-45.73 38.34 -42.52 35.12 -39.3 31.91 C-37.76 30.36 -36.21 28.82 -34.67 27.28 C-32.51 25.14 -30.36 22.98 -28.21 20.83 C-27.57 20.19 -26.92 19.55 -26.26 18.9 C-25.68 18.31 -25.09 17.72 -24.49 17.12 C-23.99 16.61 -23.48 16.1 -22.95 15.58 C-21.75 14.13 -21.75 14.13 -20.75 11.12 C-20.09 10.79 -19.43 10.46 -18.75 10.12 C-18.09 9.46 -17.43 8.8 -16.75 8.12 C-15.75 7.12 -14.75 6.12 -13.75 5.12 C-13.28 4.61 -12.8 4.09 -12.31 3.56 C-8.47 0.03 -5.12 -0.1 0 0 Z " fill="#CA1415" transform="translate(112.75,-0.125)"/>
<path d="M0 0 C0.33 0 0.66 0 1 0 C1.33 5.94 1.66 11.88 2 18 C7.94 18 13.88 18 20 18 C20.33 19.32 20.66 20.64 21 22 C21.66 22.66 22.32 23.32 23 24 C23.12 26.62 23.12 26.62 23 29 C23.66 29 24.32 29 25 29 C25.2 29.71 25.41 30.42 25.62 31.15 C25.89 32.07 26.16 32.99 26.44 33.94 C26.7 34.85 26.97 35.77 27.25 36.71 C28 39 28 39 29 40 C29.33 40.66 29.66 41.32 30 42 C33.3 34.08 36.6 26.16 40 18 C45.61 18 51.22 18 57 18 C57 25.43 56.95 27.09 54 33 C53.34 33 52.68 33 52 33 C51.86 33.76 51.71 34.53 51.56 35.31 C50.99 38.06 50.26 40.49 49 43 C48.67 43.99 48.34 44.98 48 46 C47.83 46.33 47.83 46.33 47 48 C46.86 48.76 46.71 49.53 46.56 50.31 C45.99 53.05 45.1 55.44 44 58 C43.34 58 42.68 58 42 58 C42 59.65 42 61.3 42 63 C41.34 63 40.68 63 40 63 C39.92 64.16 39.83 65.31 39.75 66.5 C39.17 71.09 37.77 75.26 35 79 C33.01 80.1 33.01 80.1 31 81 C30.22 81.66 29.43 82.32 28.62 83 C23.31 87.05 18.43 87.31 12 87 C10.68 86.67 9.36 86.34 8 86 C8.66 81.71 9.32 77.42 10 73 C12.97 73 15.94 73 19 73 C20.39 68.21 19.69 63.85 19 59 C18.34 59 17.68 59 17 59 C15.82 56.28 14.66 53.55 13.5 50.81 C13.17 50.04 12.83 49.27 12.49 48.48 C10.83 44.54 9.51 41.37 10 37 C9.34 37 8.68 37 8 37 C6.02 32.38 4.04 27.76 2 23 C1.67 37.52 1.34 52.04 1 67 C0.67 67 0.34 67 0 67 C0 44.89 0 22.78 0 0 Z M40 20 C41 22 41 22 41 22 Z M3 21 C4 23 4 23 4 23 Z M55 23 C56 25 56 25 56 25 Z M5 25 C6 27 6 27 6 27 Z M21 25 C22 27 22 27 22 27 Z M38 26 C39 28 39 28 39 28 Z M54 26 C55 28 55 28 55 28 Z M6 28 C7 30 7 30 7 30 Z M37 28 C38 30 38 30 38 30 Z M24 32 C25 34 25 34 25 34 Z M8 33 C9 35 9 35 9 35 Z M35 33 C36 35 36 35 36 35 Z M25 35 C26 37 26 37 26 37 Z M33 38 C34 41 34 41 34 41 Z M13 45 C14 47 14 47 14 47 Z M15 50 C16 52 16 52 16 52 Z M44 51 C45 53 45 53 45 53 Z M43 53 C44 55 44 55 44 55 Z M20 62 C21 64 21 64 21 64 Z M37 68 C38 70 38 70 38 70 Z M36 70 C37 72 37 72 37 72 Z M35 73 C36 75 36 75 36 75 Z " fill="#131313" transform="translate(443,16)"/>
<path d="M0 0 C15 0 15 0 17 1 C17.17 4.13 17.17 4.13 18 20 C19.98 19.34 21.96 18.68 24 18 C32.71 16.96 38.82 17.99 46 23 C46.66 23.33 47.32 23.66 48 24 C48 38.52 48 53.04 48 68 C43.38 68 38.76 68 34 68 C34 57.44 34 46.88 34 36 C33.01 36 32.02 36 31 36 C30.67 35.34 30.34 34.68 30 34 C27.94 32.88 27.94 32.88 26 32 C26.33 31.67 26.66 31.34 27 31 C25.52 31.28 24.04 31.58 22.56 31.88 C22.15 31.96 22.15 31.96 20.07 32.37 C19.38 32.58 18.7 32.78 18 33 C16.49 36.01 16.88 39.11 16.9 42.41 C16.9 42.78 16.9 42.78 16.91 44.63 C16.91 46.96 16.92 49.29 16.94 51.62 C16.94 53.21 16.95 54.79 16.95 56.37 C16.96 60.24 16.98 64.12 17 68 C11.39 68 5.78 68 0 68 C0 45.56 0 23.12 0 0 Z " fill="#080808" transform="translate(257,15)"/>
<path d="M0 0 C2.99 1.84 5.75 3.92 8.38 6.25 C9.12 6.89 9.86 7.53 10.62 8.19 C15.43 13.85 13.38 23.96 13.38 30.25 C7.93 30.41 7.93 30.41 -19.62 31.25 C-18.62 35.25 -18.62 35.25 -16.86 36.48 C-12.34 38.04 -7 38.34 -2.59 36.32 C-2.01 35.94 -1.42 35.57 -0.81 35.19 C2.38 33.25 2.38 33.25 5.12 33.25 C7.94 34.5 9 35.49 10.38 38.25 C10.38 41.53 9.69 42.88 7.56 45.38 C-0.76 50.27 -10.26 51.34 -19.62 49.25 C-23.18 47.9 -26.38 46.21 -29.62 44.25 C-30.76 43.59 -31.89 42.93 -33.06 42.25 C-35.92 40.02 -37.07 38.51 -38.62 35.25 C-38.89 32.59 -39.01 30.21 -38.94 27.56 C-38.93 26.85 -38.91 26.15 -38.9 25.42 C-38.52 11.27 -38.52 11.27 -34.25 5.69 C-31.59 3.22 -30.92 3.02 -27.62 2.25 C-27.08 1.91 -27.08 1.91 -24.31 0.19 C-17.25 -3.43 -7.15 -3.43 0 0 Z M-20.62 12.25 C-20.62 13.57 -20.62 14.89 -20.62 16.25 C-15.01 16.25 -9.41 16.25 -3.62 16.25 C-4.28 15.26 -4.94 14.27 -5.62 13.25 C-5.3 12.59 -4.97 11.93 -4.62 11.25 C-11.03 8.32 -14.49 8.83 -20.62 12.25 Z M11.38 13.25 C12.38 15.25 12.38 15.25 12.38 15.25 Z M-23.62 17.25 C-23.62 17.58 -23.62 17.91 -23.62 18.25 C-16.37 18.25 -9.1 18.25 -1.62 18.25 C-1.62 17.92 -1.62 17.59 -1.62 17.25 C-8.88 17.25 -16.15 17.25 -23.62 17.25 Z " fill="#111111" transform="translate(237.625,34.75)"/>
<path d="M0 0 C0.75 0 1.51 0 2.29 0 C8.07 0.13 11.76 1.1 16.62 4.38 C17.11 4.63 17.11 4.63 19.56 5.94 C21.62 7.38 21.62 7.38 22.62 10.38 C22.79 10.54 22.79 10.54 23.62 11.38 C23.64 14.26 23.6 17.12 23.5 20 C23.49 20.44 23.49 20.44 23.43 22.62 C23.36 25.39 23.27 28.17 23.19 30.94 C23.13 32.81 23.08 34.69 23.03 36.56 C22.9 41.17 22.76 45.77 22.62 50.38 C21.98 50.36 21.98 50.36 18.71 50.3 C17 50.29 15.28 50.27 13.56 50.25 C12.71 50.23 11.87 50.22 10.99 50.2 C5.76 50.16 1.59 50.75 -3.38 52.38 C-8.59 52.47 -13.68 51.72 -18.38 49.38 C-19.06 49.15 -19.74 48.92 -20.44 48.69 C-23.56 46.57 -25.13 43.84 -26.38 40.38 C-27.18 35.33 -27 30.89 -24.62 26.31 C-22.38 23.38 -22.38 23.38 -20.5 22.62 C-20.15 22.58 -20.15 22.58 -18.38 22.38 C-17.95 22.13 -17.95 22.13 -15.8 20.87 C-11.5 18.99 -8.12 19.03 -3.5 19.19 C-3.11 19.19 -3.11 19.19 -1.12 19.23 C0.79 19.26 2.71 19.32 4.62 19.38 C4.3 17.39 3.96 15.41 3.62 13.38 C-8.06 12.68 -8.06 12.68 -12.31 15.44 C-15.38 17.38 -15.38 17.38 -18.12 17.44 C-21.21 15.98 -22.13 14.52 -23.38 11.38 C-22.65 7.53 -19.43 5.69 -16.42 3.52 C-11.06 0.52 -6.01 -0.01 0 0 Z M6.62 18.38 C7.62 20.38 7.62 20.38 7.62 20.38 Z M-24.38 28.38 C-23.38 30.38 -23.38 30.38 -23.38 30.38 Z M-8.38 31.38 C-8.38 33.38 -8.38 33.38 -7.81 35.88 C-7.38 38.38 -7.38 38.38 -8.38 40.38 C-0.74 42.92 -0.74 42.92 3.62 41 C4.62 40.46 5.61 39.93 6.62 39.38 C6.3 37.06 5.97 34.75 5.62 32.38 C6.28 32.05 6.94 31.72 7.62 31.38 C4.48 29.53 2.14 29.1 -1.5 29.12 C-2.37 29.12 -3.24 29.11 -4.13 29.11 C-6.38 29.38 -6.38 29.38 -8.38 31.38 Z M-25.38 30.38 C-25.38 32.03 -25.38 33.67 -25.38 35.38 C-25.05 35.38 -24.71 35.38 -24.38 35.38 C-24.38 33.72 -24.38 32.08 -24.38 30.38 C-24.7 30.38 -25.04 30.38 -25.38 30.38 Z M6.62 33.38 C7.62 36.38 7.62 36.38 7.62 36.38 Z M-10.38 35.38 C-9.38 37.38 -9.38 37.38 -9.38 37.38 Z M-25.38 36.38 C-24.38 40.38 -24.38 40.38 -24.38 40.38 Z M7.62 46.38 C7.3 47.03 6.97 47.69 6.62 48.38 C7.28 48.38 7.94 48.38 8.62 48.38 C8.3 47.72 7.97 47.06 7.62 46.38 Z " fill="#111111" transform="translate(336.375,32.625)"/>
<path d="M0 0 C1.25 -0 2.49 -0.01 3.78 -0.01 C7.06 0.12 7.06 0.12 10.06 1.12 C10.06 4.76 10.06 8.39 10.06 12.12 C12.7 12.12 15.34 12.12 18.06 12.12 C18.06 17.41 18.06 22.69 18.06 28.12 C15.42 28.12 12.78 28.12 10.06 28.12 C10.06 35.72 10.06 43.3 10.06 51.12 C11.22 50.96 11.22 50.96 17.06 50.12 C17.72 52.1 18.38 54.09 19.06 56.12 C19.72 56.12 20.38 56.12 21.06 56.12 C21.23 56.95 21.23 56.95 22.06 61.12 C15.47 64.35 9.62 65.78 2.31 64.44 C-1.04 63.09 -3.25 61.51 -5.94 59.12 C-6.6 58.8 -7.26 58.47 -7.94 58.12 C-9.04 54.83 -9.05 52.4 -9.04 48.93 C-9.03 48.32 -9.03 48.32 -9.03 45.26 C-9.02 44 -9.01 42.74 -9 41.44 C-9 40.8 -9 40.8 -8.99 37.58 C-8.97 34.43 -8.96 31.28 -8.94 28.12 C-10.92 28.12 -12.9 28.12 -14.94 28.12 C-14.94 22.84 -14.94 17.56 -14.94 12.12 C-12.96 12.12 -10.98 12.12 -8.94 12.12 C-8.94 8.49 -8.94 4.86 -8.94 1.12 C-5.98 -0.35 -3.29 -0.01 0 0 Z M-7.94 28.12 C-7.94 37.03 -7.94 45.94 -7.94 55.12 C-7.61 55.12 -7.28 55.12 -6.94 55.12 C-6.94 46.22 -6.94 37.3 -6.94 28.12 C-7.27 28.12 -7.6 28.12 -7.94 28.12 Z M8.06 28.12 C5.15 33.96 7.26 42.88 8.06 49.12 C8.39 49.12 8.72 49.12 9.06 49.12 C9.06 42.2 9.06 35.27 9.06 28.12 C8.73 28.12 8.4 28.12 8.06 28.12 Z M20.06 59.12 C21.06 61.12 21.06 61.12 21.06 61.12 Z " fill="#0E0E0E" transform="translate(402.9375,19.875)"/>
<path d="M0 0 C4.95 0 9.9 0 15 0 C15 22.44 15 44.88 15 68 C10.05 68 5.1 68 0 68 C0 45.56 0 23.12 0 0 Z " fill="#0F0F0F" transform="translate(368,15)"/>
<path d="M0 0 C4.62 0 9.24 0 14 0 C14 22.44 14 44.88 14 68 C9.38 68 4.76 68 0 68 C0 45.56 0 23.12 0 0 Z " fill="#080808" transform="translate(428,15)"/>
<path d="M0 0 C0.19 13.02 -0.39 26 -1 39 C-1.33 39 -1.66 39 -2 39 C-2.33 28.11 -2.66 17.22 -3 6 C-9.13 12.25 -9.13 12.25 -11.02 14.2 C-13.68 16.89 -16.12 19.08 -19.3 21.17 C-22 23 -22 23 -22.86 24.79 C-24.42 27.81 -26.56 29.8 -28.97 32.2 C-29.47 32.7 -29.98 33.2 -30.5 33.72 C-32.16 35.39 -33.83 37.04 -35.5 38.7 C-36.66 39.85 -37.82 41.01 -38.97 42.16 C-42.02 45.2 -45.07 48.23 -48.13 51.26 C-51.23 54.35 -54.34 57.44 -57.44 60.54 C-62.89 65.97 -68.34 71.39 -73.8 76.81 C-75.2 78.21 -76.6 79.6 -78 81 C-78.5 81.16 -78.5 81.16 -81 82 C-81 82.66 -81 83.32 -81 84 C-80.34 84.33 -79.68 84.66 -79 85 C-79.16 85.33 -79.16 85.33 -80 87 C-81.65 86.34 -83.3 85.68 -85 85 C-83.37 80.87 -80.38 78.13 -77.28 75.09 C-76.7 74.5 -76.11 73.92 -75.51 73.33 C-74.25 72.07 -72.98 70.81 -71.71 69.56 C-69.7 67.57 -67.7 65.58 -65.69 63.59 C-61.45 59.37 -57.19 55.15 -52.94 50.94 C-48 46.05 -43.07 41.16 -38.15 36.26 C-36.17 34.3 -34.19 32.34 -32.21 30.39 C-31 29.19 -29.8 27.99 -28.59 26.78 C-28.04 26.24 -27.48 25.7 -26.91 25.14 C-24.54 22.77 -23.08 21.23 -22 18 C-21.68 17.85 -21.68 17.85 -20.06 17.06 C-18 16 -18 16 -17 14 C-15.73 11.45 -14.51 11.25 -12 10 C-10.62 8.37 -9.28 6.71 -8 5 C-3 0 -3 0 0 0 Z " fill="#F5D352" transform="translate(118,23)"/>
<path d="M0 0 C15 0 15 0 17 1 C17.33 7.6 17.66 14.2 18 21 C17.34 21.33 17.34 21.33 14 23 C14 16.07 14 9.14 14 2 C10.04 2 6.08 2 2 2 C2.01 2.83 2.01 3.65 2.02 4.51 C2.13 25.69 1.78 46.83 1 68 C0.67 68 0.34 68 0 68 C0 45.56 0 23.12 0 0 Z " fill="#676767" transform="translate(257,15)"/>
<path d="M0 0 C0.19 13.02 -0.39 26 -1 39 C-1.33 39 -1.66 39 -2 39 C-2.33 28.11 -2.66 17.22 -3 6 C-9.13 12.25 -9.13 12.25 -11.02 14.2 C-14.44 17.66 -17.76 20.57 -22 23 C-22.99 23 -23.98 23 -25 23 C-23.04 19.28 -21.72 17.8 -18 16 C-17.67 15.34 -17.34 14.68 -17 14 C-15.73 11.45 -14.51 11.25 -12 10 C-10.62 8.37 -9.28 6.71 -8 5 C-3 0 -3 0 0 0 Z " fill="#F2D87C" transform="translate(118,23)"/>
<path d="M0 0 C0.66 0.66 1.32 1.32 2 2 C0.44 5.74 -1.87 8.13 -4.72 10.98 C-5.18 11.45 -5.18 11.45 -7.54 13.82 C-8.03 14.3 -8.51 14.78 -9.01 15.27 C-10.5 16.75 -11.98 18.24 -13.46 19.73 C-14.39 20.66 -15.32 21.59 -16.28 22.55 C-17.14 23.4 -17.99 24.26 -18.88 25.14 C-21 27 -21 27 -23 27 C-23.33 27.66 -23.66 28.32 -24 29 C-23.37 26.07 -22.61 23.54 -21 21 C-19.67 20.32 -18.34 19.65 -17 19 C-16.67 18.01 -16.34 17.02 -16 16 C-15.34 15.67 -14.68 15.34 -14 15 C-13.34 14.34 -12.68 13.68 -12 13 C-9.86 10.86 -7.73 8.73 -5.56 6.62 C-3.48 4.5 -1.71 2.43 0 0 Z " fill="#5A5A5A" transform="translate(24,44)"/>
<path d="M0 0 C0.33 10.56 0.66 21.12 1 32 C0.01 32 -0.98 32 -2 32 C-3.1 28.7 -3.11 26.27 -3.1 22.8 C-3.1 22.2 -3.1 22.2 -3.09 19.14 C-3.08 17.88 -3.07 16.61 -3.06 15.31 C-3.06 14.68 -3.06 14.68 -3.05 11.45 C-3.04 8.3 -3.02 5.15 -3 2 C-4.98 2 -6.96 2 -9 2 C-9 1.67 -9 1.34 -9 1 C-1.12 0 -1.12 0 0 0 Z M-2 2 C-2 10.91 -2 19.82 -2 29 C-1.67 29 -1.34 29 -1 29 C-1 20.09 -1 11.18 -1 2 C-1.33 2 -1.66 2 -2 2 Z " fill="#2B2B2B" transform="translate(397,46)"/>
<path d="M0 0 C0.33 0 0.66 0 1 0 C1 22.44 1 44.88 1 68 C0.67 68 0.34 68 0 68 C0 45.56 0 23.12 0 0 Z " fill="#000000" transform="translate(426,15)"/>
<path d="M0 0 C0.33 0 0.66 0 1 0 C1 22.11 1 44.22 1 67 C0.67 67 0.34 67 0 67 C0 44.89 0 22.78 0 0 Z " fill="#4E4E4D" transform="translate(384,16)"/>
<path d="M0 0 C0.33 0 0.66 0 1 0 C1 22.11 1 44.22 1 67 C0.67 67 0.34 67 0 67 C0 44.89 0 22.78 0 0 Z " fill="#050505" transform="translate(366,16)"/>
<path d="M0 0 C0.33 0 0.66 0 1 0 C1 22.11 1 44.22 1 67 C0.67 67 0.34 67 0 67 C0 44.89 0 22.78 0 0 Z " fill="#5C5C5C" transform="translate(255,16)"/>
<path d="M0 0 C0.33 0 0.66 0 1 0 C1 15.84 1 31.68 1 48 C0.67 48 0.34 48 0 48 C0 32.16 0 16.32 0 0 Z " fill="#474747" transform="translate(194,35)"/>
<path d="M0 0 C0.33 0 0.66 0 1 0 C1 12.87 1 25.74 1 39 C0.67 39 0.34 39 0 39 C0 26.13 0 13.26 0 0 Z " fill="#030303" transform="translate(306,44)"/>
<path d="M0 0 C0.33 0 0.66 0 1 0 C1 11.88 1 23.76 1 36 C0.67 36 0.34 36 0 36 C0 24.12 0 12.24 0 0 Z " fill="#070707" transform="translate(360,47)"/>
<path d="M0 0 C0.33 0 0.66 0 1 0 C1 10.23 1 20.46 1 31 C0.67 31 0.34 31 0 31 C0 20.77 0 10.54 0 0 Z " fill="#000000" transform="translate(289,52)"/>
<path d="M0 0 C0.33 0 0.66 0 1 0 C1 7.59 1 15.18 1 23 C0.67 23 0.34 23 0 23 C0 15.41 0 7.82 0 0 Z " fill="#E8B600" transform="translate(118,39)"/>
<path d="M0 0 C0.33 0 0.66 0 1 0 C1 7.26 1 14.52 1 22 C0.67 22 0.34 22 0 22 C0 14.74 0 7.48 0 0 Z " fill="#E7E162" transform="translate(117,63)"/>
<path d="M0 0 C5.94 0 11.88 0 18 0 C18 0.33 18 0.66 18 1 C12.06 1 6.12 1 0 1 C0 0.67 0 0.34 0 0 Z " fill="#313131" transform="translate(50,1)"/>
<path d="M0 0 C0 3 0 3 -1.31 4.61 C-1.87 5.13 -2.43 5.65 -3 6.19 C-3.56 6.72 -4.11 7.25 -4.69 7.79 C-5.12 8.19 -5.55 8.59 -6 9 C-6.66 8.67 -7.32 8.34 -8 8 C-5.36 5.36 -2.72 2.72 0 0 Z " fill="#1E1E1E" transform="translate(45,52)"/>
<path d="M0 0 C5.61 0 11.22 0 17 0 C17 0.33 17 0.66 17 1 C11.39 1 5.78 1 0 1 C0 0.67 0 0.34 0 0 Z " fill="#353535" transform="translate(328,31)"/>
<path d="M0 0 C5.61 0 11.22 0 17 0 C17 0.33 17 0.66 17 1 C11.39 1 5.78 1 0 1 C0 0.67 0 0.34 0 0 Z " fill="#20201B" transform="translate(69,0)"/>
<path d="M0 0 C4.95 0 9.9 0 15 0 C15 0.33 15 0.66 15 1 C10.05 1 5.1 1 0 1 C0 0.67 0 0.34 0 0 Z " fill="#000000" transform="translate(485,32)"/>
<path d="M0 0 C4.95 0 9.9 0 15 0 C15 0.33 15 0.66 15 1 C10.05 1 5.1 1 0 1 C0 0.67 0 0.34 0 0 Z " fill="#000000" transform="translate(446,32)"/>
<path d="M0 0 C4.95 0 9.9 0 15 0 C15 0.33 15 0.66 15 1 C10.05 1 5.1 1 0 1 C0 0.67 0 0.34 0 0 Z " fill="#343434" transform="translate(218,31)"/>
<path d="M0 0 C0.33 0 0.66 0 1 0 C1 4.95 1 9.9 1 15 C0.67 15 0.34 15 0 15 C0 10.05 0 5.1 0 0 Z " fill="#FFDC7F" transform="translate(119,24)"/>
<path d="M0 0 C4.62 0 9.24 0 14 0 C14 0.33 14 0.66 14 1 C9.38 1 4.76 1 0 1 C0 0.67 0 0.34 0 0 Z " fill="#000000" transform="translate(428,84)"/>
<path d="M0 0 C4.62 0 9.24 0 14 0 C14 0.33 14 0.66 14 1 C9.38 1 4.76 1 0 1 C0 0.67 0 0.34 0 0 Z " fill="#000000" transform="translate(291,84)"/>
<path d="M0 0 C4.62 0 9.24 0 14 0 C14 0.33 14 0.66 14 1 C9.38 1 4.76 1 0 1 C0 0.67 0 0.34 0 0 Z " fill="#121212" transform="translate(257,84)"/>
<path d="M0 0 C4.62 0 9.24 0 14 0 C14 0.33 14 0.66 14 1 C9.38 1 4.76 1 0 1 C0 0.67 0 0.34 0 0 Z " fill="#858585" transform="translate(428,13)"/>
<path d="M0 0 C4.62 0 9.24 0 14 0 C14 0.33 14 0.66 14 1 C9.38 1 4.76 1 0 1 C0 0.67 0 0.34 0 0 Z " fill="#707070" transform="translate(368,13)"/>
<path d="M0 0 C4.62 0 9.24 0 14 0 C14 0.33 14 0.66 14 1 C9.38 1 4.76 1 0 1 C0 0.67 0 0.34 0 0 Z " fill="#1E1E1E" transform="translate(36,2)"/>
<path d="M0 0 C4.29 0 8.58 0 13 0 C13 0.33 13 0.66 13 1 C8.71 1 4.42 1 0 1 C0 0.67 0 0.34 0 0 Z " fill="#000000" transform="translate(345,84)"/>
<path d="M0 0 C4.29 0 8.58 0 13 0 C13 0.33 13 0.66 13 1 C8.71 1 4.42 1 0 1 C0 0.67 0 0.34 0 0 Z " fill="#161616" transform="translate(324,50)"/>
<path d="M0 0 C4.29 0 8.58 0 13 0 C13 0.33 13 0.66 13 1 C8.71 1 4.42 1 0 1 C0 0.67 0 0.34 0 0 Z " fill="#000000" transform="translate(179,32)"/>
<path d="M0 0 C4.29 0 8.58 0 13 0 C13 0.33 13 0.66 13 1 C8.71 1 4.42 1 0 1 C0 0.67 0 0.34 0 0 Z " fill="#2D2D1A" transform="translate(281,31)"/>
<path d="M0 0 C4.29 0 8.58 0 13 0 C13 0.33 13 0.66 13 1 C8.71 1 4.42 1 0 1 C0 0.67 0 0.34 0 0 Z " fill="#1A1A1A" transform="translate(157,31)"/>
<path d="M0 0 C4.29 0 8.58 0 13 0 C13 0.33 13 0.66 13 1 C8.71 1 4.42 1 0 1 C0 0.67 0 0.34 0 0 Z " fill="#B0B0B0" transform="translate(397,18)"/>
<path d="M0 0 C4.29 0 8.58 0 13 0 C13 0.33 13 0.66 13 1 C8.71 1 4.42 1 0 1 C0 0.67 0 0.34 0 0 Z " fill="#828282" transform="translate(258,13)"/>
<path d="M0 0 C3.96 0 7.92 0 12 0 C12 0.33 12 0.66 12 1 C8.04 1 4.08 1 0 1 C0 0.67 0 0.34 0 0 Z " fill="#000000" transform="translate(160,104)"/>
<path d="M0 0 C3.96 0 7.92 0 12 0 C12 0.33 12 0.66 12 1 C8.04 1 4.08 1 0 1 C0 0.67 0 0.34 0 0 Z " fill="#000000" transform="translate(368,84)"/>
<path d="M0 0 C3.96 0 7.92 0 12 0 C12 0.33 12 0.66 12 1 C8.04 1 4.08 1 0 1 C0 0.67 0 0.34 0 0 Z " fill="#989898" transform="translate(328,46)"/>
<path d="M0 0 C0.33 0 0.66 0 1 0 C1 3.96 1 7.92 1 12 C0.67 12 0.34 12 0 12 C0 8.04 0 4.08 0 0 Z " fill="#0E0E0E" transform="translate(422,34)"/>
<path d="M0 0 C0.33 0 0.66 0 1 0 C1 3.96 1 7.92 1 12 C0.67 12 0.34 12 0 12 C0 8.04 0 4.08 0 0 Z " fill="#000000" transform="translate(386,34)"/>
<path d="M0 0 C3.3 0 6.6 0 10 0 C10 0.33 10 0.66 10 1 C6.7 1 3.4 1 0 1 C0 0.67 0 0.34 0 0 Z " fill="#000000" transform="translate(330,72)"/>
<path d="M0 0 C3.3 0 6.6 0 10 0 C10 0.33 10 0.66 10 1 C6.7 1 3.4 1 0 1 C0 0.67 0 0.34 0 0 Z " fill="#000000" transform="translate(330,63)"/>
<path d="M0 0 C2.97 0 5.94 0 9 0 C9 0.33 9 0.66 9 1 C6.03 1 3.06 1 0 1 C0 0.67 0 0.34 0 0 Z " fill="#1C1C1C" transform="translate(161,89)"/>
<path d="M0 0 C2.97 0 5.94 0 9 0 C9 0.33 9 0.66 9 1 C6.03 1 3.06 1 0 1 C0 0.67 0 0.34 0 0 Z " fill="#2C2C2C" transform="translate(223,71)"/>
<path d="M0 0 C0.33 0 0.66 0 1 0 C1 2.97 1 5.94 1 9 C0.67 9 0.34 9 0 9 C0 6.03 0 3.06 0 0 Z " fill="#000000" transform="translate(252,54)"/>
<path d="M0 0 C0.33 0 0.66 0 1 0 C1 2.97 1 5.94 1 9 C0.67 9 0.34 9 0 9 C0 6.03 0 3.06 0 0 Z " fill="#000000" transform="translate(197,54)"/>
<path d="M0 0 C2.64 0 5.28 0 8 0 C8 0.33 8 0.66 8 1 C5.36 1 2.72 1 0 1 C0 0.67 0 0.34 0 0 Z " fill="#000000" transform="translate(455,104)"/>
<path d="M0 0 C2.64 0 5.28 0 8 0 C8 0.33 8 0.66 8 1 C5.36 1 2.72 1 0 1 C0 0.67 0 0.34 0 0 Z " fill="#000000" transform="translate(160,84)"/>
<path d="M0 0 C0.66 0.33 1.32 0.66 2 1 C1.01 1.99 0.02 2.98 -1 4 C-1.66 3.67 -2.32 3.34 -3 3 C-2.01 2.01 -1.02 1.02 0 0 Z " fill="#CF0000" transform="translate(20,82)"/>
<path d="M0 0 C0.99 0.66 1.98 1.32 3 2 C1.35 2.33 -0.3 2.66 -2 3 C-2 2.34 -2 1.68 -2 1 C-1.34 0.67 -0.68 0.34 0 0 Z " fill="#1F1F1F" transform="translate(321,50)"/>
<path d="M0 0 C0.33 0 0.66 0 1 0 C1 2.31 1 4.62 1 7 C0.67 7 0.34 7 0 7 C0 4.69 0 2.38 0 0 Z " fill="#121212" transform="translate(450,92)"/>
<path d="M0 0 C2.31 0 4.62 0 7 0 C7 0.33 7 0.66 7 1 C4.69 1 2.38 1 0 1 C0 0.67 0 0.34 0 0 Z " fill="#3C3C3C" transform="translate(455,88)"/>
<path d="M0 0 C2.31 0 4.62 0 7 0 C7 0.33 7 0.66 7 1 C4.69 1 2.38 1 0 1 C0 0.67 0 0.34 0 0 Z " fill="#000000" transform="translate(223,86)"/>
<path d="M0 0 C2.31 0 4.62 0 7 0 C7 0.33 7 0.66 7 1 C4.69 1 2.38 1 0 1 C0 0.67 0 0.34 0 0 Z " fill="#2D2D2D" transform="translate(164,68)"/>
<path d="M0 0 C0.33 0 0.66 0 1 0 C1 2.31 1 4.62 1 7 C0.67 7 0.34 7 0 7 C0 4.69 0 2.38 0 0 Z " fill="#6D0000" transform="translate(120,0)"/>
<path d="M0 0 C0.33 0 0.66 0 1 0 C1 1.98 1 3.96 1 6 C0.67 6 0.34 6 0 6 C0 4.02 0 2.04 0 0 Z " fill="#1F1F1F" transform="translate(140,49)"/>
<path d="M0 0 C0 0.99 0 1.98 0 3 C-0.66 2.67 -1.32 2.34 -2 2 C-1.34 1.34 -0.68 0.68 0 0 Z " fill="#000000" transform="translate(474,97)"/>
<path d="M0 0 C0.99 0.99 1.98 1.98 3 3 C2.01 2.67 1.02 2.34 0 2 C0 1.34 0 0.68 0 0 Z " fill="#6E0000" transform="translate(18,91)"/>
<path d="M0 0 C1.65 0 3.3 0 5 0 C5 0.33 5 0.66 5 1 C3.35 1 1.7 1 0 1 C0 0.67 0 0.34 0 0 Z " fill="#000000" transform="translate(409,86)"/>
<path d="M0 0 C1.65 0 3.3 0 5 0 C5 0.33 5 0.66 5 1 C3.35 1 1.7 1 0 1 C0 0.67 0 0.34 0 0 Z " fill="#000000" transform="translate(328,86)"/>
<path d="M0 0 C1.65 0 3.3 0 5 0 C5 0.33 5 0.66 5 1 C3.35 1 1.7 1 0 1 C0 0.67 0 0.34 0 0 Z " fill="#444444" transform="translate(404,85)"/>
<path d="M0 0 C1.65 0 3.3 0 5 0 C5 0.33 5 0.66 5 1 C3.35 1 1.7 1 0 1 C0 0.67 0 0.34 0 0 Z " fill="#111111" transform="translate(333,85)"/>
<path d="M0 0 C1.65 0 3.3 0 5 0 C5 0.33 5 0.66 5 1 C3.35 1 1.7 1 0 1 C0 0.67 0 0.34 0 0 Z " fill="#191919" transform="translate(231,85)"/>
<path d="M0 0 C1.65 0 3.3 0 5 0 C5 0.33 5 0.66 5 1 C3.35 1 1.7 1 0 1 C0 0.67 0 0.34 0 0 Z " fill="#222222" transform="translate(218,85)"/>
<path d="M0 0 C0.99 0.99 1.98 1.98 3 3 C2.01 2.67 1.02 2.34 0 2 C0 1.34 0 0.68 0 0 Z " fill="#000000" transform="translate(159,64)"/>
<path d="M0 0 C0 0.99 0 1.98 0 3 C-0.66 2.67 -1.32 2.34 -2 2 C-1.34 1.34 -0.68 0.68 0 0 Z " fill="#000000" transform="translate(33,64)"/>
<path d="M0 0 C0.33 0 0.66 0 1 0 C1 1.65 1 3.3 1 5 C0.67 5 0.34 5 0 5 C0 3.35 0 1.7 0 0 Z " fill="#E5E5E5" transform="translate(139,55)"/>
<path d="M0 0 C0 0.99 0 1.98 0 3 C-0.66 2.67 -1.32 2.34 -2 2 C-1.34 1.34 -0.68 0.68 0 0 Z " fill="#880000" transform="translate(114,18)"/>
<path d="M0 0 C4 1 4 1 4 1 Z " fill="#000000" transform="translate(172,103)"/>
<path d="M0 0 C4 1 4 1 4 1 Z " fill="#1F1F1F" transform="translate(156,103)"/>
<path d="M0 0 C4 1 4 1 4 1 Z " fill="#000000" transform="translate(152,102)"/>
<path d="M0 0 C4 1 4 1 4 1 Z " fill="#3F3F3F" transform="translate(157,88)"/>
<path d="M0 0 C4 1 4 1 4 1 Z " fill="#151515" transform="translate(414,85)"/>
<path d="M0 0 C4 1 4 1 4 1 Z " fill="#353535" transform="translate(323,85)"/>
<path d="M0 0 C4 1 4 1 4 1 Z " fill="#000000" transform="translate(168,83)"/>
<path d="M0 0 C4 1 4 1 4 1 Z " fill="#000000" transform="translate(156,83)"/>
<path d="M0 0 C0.66 0.66 1.32 1.32 2 2 C1.01 1.67 0.02 1.34 -1 1 C-0.67 0.67 -0.34 0.34 0 0 Z " fill="#FFBF3F" transform="translate(96,70)"/>
<path d="M0 0 C1 4 1 4 1 4 Z " fill="#151515" transform="translate(198,63)"/>
<path d="M0 0 C0.66 0.33 1.32 0.66 2 1 C1.01 1 0.02 1 -1 1 C-0.67 0.67 -0.34 0.34 0 0 Z " fill="#000000" transform="translate(316,54)"/>
<path d="M0 0 C4 1 4 1 4 1 Z " fill="#000000" transform="translate(337,51)"/>
<path d="M0 0 C4 1 4 1 4 1 Z " fill="#000000" transform="translate(277,47)"/>
<path d="M0 0 C4 1 4 1 4 1 Z " fill="#000000" transform="translate(169,47)"/>
<path d="M0 0 C4 1 4 1 4 1 Z " fill="#000000" transform="translate(162,47)"/>
<path d="M0 0 C4 1 4 1 4 1 Z " fill="#555555" transform="translate(227,46)"/>
<path d="M0 0 C4 1 4 1 4 1 Z " fill="#000000" transform="translate(223,45)"/>
<path d="M0 0 C0.99 0 1.98 0 3 0 C2.67 0.66 2.34 1.32 2 2 C1.34 1.34 0.68 0.68 0 0 Z " fill="#555555" transform="translate(174,34)"/>
<path d="M0 0 C1 4 1 4 1 4 Z " fill="#1F0000" transform="translate(119,10)"/>
<path d="M0 0 C4 1 4 1 4 1 Z " fill="#000000" transform="translate(32,3)"/>
<path d="M0 0 C3 1 3 1 3 1 Z " fill="#000000" transform="translate(464,103)"/>
<path d="M0 0 C3 1 3 1 3 1 Z " fill="#2A2A2A" transform="translate(452,103)"/>
<path d="M0 0 C3 1 3 1 3 1 Z " fill="#000000" transform="translate(176,102)"/>
<path d="M0 0 C3 1 3 1 3 1 Z " fill="#000000" transform="translate(179,101)"/>
<path d="M0 0 C3 1 3 1 3 1 Z " fill="#2A2A2A" transform="translate(170,88)"/>
<path d="" fill="#000000" transform="translate(0,0)"/>
<path d="M0 0 C3 1 3 1 3 1 Z " fill="#000000" transform="translate(418,84)"/>
<path d="M0 0 C3 1 3 1 3 1 Z " fill="#000000" transform="translate(236,84)"/>
<path d="M0 0 C3 1 3 1 3 1 Z " fill="#000000" transform="translate(215,84)"/>
<path d="M0 0 C3 1 3 1 3 1 Z " fill="#000000" transform="translate(239,83)"/>
<path d="M0 0 C0.66 0.66 1.32 1.32 2 2 C1.34 2 0.68 2 0 2 C0 1.34 0 0.68 0 0 Z " fill="#000000" transform="translate(397,79)"/>
<path d="M0 0 C0.33 0.17 0.33 0.17 2 1 C1.67 1.17 1.67 1.17 0 2 C0 1.34 0 0.68 0 0 Z " fill="#A95555" transform="translate(23,79)"/>
<path d="M0 0 C0.33 0.66 0.66 1.32 1 2 C0.34 1.67 -0.32 1.34 -1 1 C-0.67 0.67 -0.34 0.34 0 0 Z " fill="#FF7F00" transform="translate(90,76)"/>
<path d="M0 0 C0.33 0.17 0.33 0.17 2 1 C1.67 1.17 1.67 1.17 0 2 C0 1.34 0 0.68 0 0 Z " fill="#A90000" transform="translate(26,76)"/>
<path d="" fill="#555555" transform="translate(0,0)"/>
<path d="M0 0 C3 1 3 1 3 1 Z " fill="#000000" transform="translate(413,70)"/>
<path d="M0 0 C3 1 3 1 3 1 Z " fill="#2A2A2A" transform="translate(171,67)"/>
<path d="M0 0 C0.33 0.66 0.66 1.32 1 2 C0.34 1.67 -0.32 1.34 -1 1 C-0.67 0.67 -0.34 0.34 0 0 Z " fill="#000000" transform="translate(35,62)"/>
<path d="" fill="#555555" transform="translate(0,0)"/>
<path d="" fill="#2A2A2A" transform="translate(0,0)"/>
<path d="" fill="#2A2A2A" transform="translate(0,0)"/>
<path d="" fill="#1C1C1C" transform="translate(0,0)"/>
<path d="" fill="#555555" transform="translate(0,0)"/>
<path d="M0 0 C3 1 3 1 3 1 Z " fill="#000000" transform="translate(325,47)"/>
<path d="M0 0 C3 1 3 1 3 1 Z " fill="#717171" transform="translate(220,46)"/>
<path d="M0 0 C3 1 3 1 3 1 Z " fill="#000000" transform="translate(166,46)"/>
<path d="" fill="#000000" transform="translate(0,0)"/>
<path d="M0 0 C3 1 3 1 3 1 Z " fill="#000000" transform="translate(347,33)"/>
<path d="M0 0 C3 1 3 1 3 1 Z " fill="#000000" transform="translate(322,33)"/>
<path d="M0 0 C3 1 3 1 3 1 Z " fill="#000000" transform="translate(235,33)"/>
<path d="M0 0 C3 1 3 1 3 1 Z " fill="#717171" transform="translate(325,32)"/>
<path d="M0 0 C3 1 3 1 3 1 Z " fill="#1C1C1C" transform="translate(294,32)"/>
<path d="M0 0 C3 1 3 1 3 1 Z " fill="#1C1C1C" transform="translate(215,32)"/>
<path d="M0 0 C0.33 0.66 0.66 1.32 1 2 C0.34 1.67 -0.32 1.34 -1 1 C-0.67 0.67 -0.34 0.34 0 0 Z " fill="#9B5555" transform="translate(116,16)"/>
<path d="M0 0 C0.66 0.66 1.32 1.32 2 2 C1.34 2 0.68 2 0 2 C0 1.34 0 0.68 0 0 Z " fill="#000000" transform="translate(34,10)"/>
<path d="M0 0 C2 1 2 1 2 1 Z " fill="#000000" transform="translate(467,102)"/>
<path d="M0 0 C2 1 2 1 2 1 Z " fill="#000000" transform="translate(469,101)"/>
<path d="M0 0 C2 1 2 1 2 1 Z " fill="#000000" transform="translate(150,101)"/>
<path d="" fill="#3F3F3F" transform="translate(0,0)"/>
<path d="M0 0 C2 1 2 1 2 1 Z " fill="#000000" transform="translate(148,100)"/>
<path d="M0 0 C2 1 2 1 2 1 Z " fill="#000000" transform="translate(183,99)"/>
<path d="M0 0 C2 1 2 1 2 1 Z " fill="#000000" transform="translate(145,98)"/>
<path d="" fill="#000000" transform="translate(0,0)"/>
<path d="" fill="#000000" transform="translate(0,0)"/>
<path d="" fill="#000000" transform="translate(0,0)"/>
<path d="M0 0 C2 1 2 1 2 1 Z " fill="#000000" transform="translate(453,87)"/>
<path d="M0 0 C2 1 2 1 2 1 Z " fill="#000000" transform="translate(155,87)"/>
<path d="M0 0 C2 1 2 1 2 1 Z " fill="#FFFF7F" transform="translate(113,87)"/>
<path d="M0 0 C2 1 2 1 2 1 Z " fill="#3F3F3F" transform="translate(153,86)"/>
<path d="M0 0 C2 1 2 1 2 1 Z " fill="#000000" transform="translate(402,84)"/>
<path d="M0 0 C2 1 2 1 2 1 Z " fill="#000000" transform="translate(381,84)"/>
<path d="M0 0 C2 1 2 1 2 1 Z " fill="#000000" transform="translate(338,84)"/>
<path d="M0 0 C2 1 2 1 2 1 Z " fill="#000000" transform="translate(321,84)"/>
<path d="M0 0 C2 1 2 1 2 1 Z " fill="#000000" transform="translate(340,83)"/>
<path d="M0 0 C2 1 2 1 2 1 Z " fill="#3F3F00" transform="translate(319,83)"/>
<path d="M0 0 C2 1 2 1 2 1 Z " fill="#3F3F3F" transform="translate(213,83)"/>
<path d="M0 0 C2 1 2 1 2 1 Z " fill="#000000" transform="translate(149,83)"/>
<path d="M0 0 C2 1 2 1 2 1 Z " fill="#7F7F7F" transform="translate(211,82)"/>
<path d="M0 0 C2 1 2 1 2 1 Z " fill="#3F3F3F" transform="translate(154,82)"/>
<path d="M0 0 C2 1 2 1 2 1 Z " fill="#000000" transform="translate(243,81)"/>
<path d="M0 0 C2 1 2 1 2 1 Z " fill="#000000" transform="translate(173,81)"/>
<path d="M0 0 C2 1 2 1 2 1 Z " fill="#000000" transform="translate(152,81)"/>
<path d="" fill="#3F3F3F" transform="translate(0,0)"/>
<path d="M0 0 C2 1 2 1 2 1 Z " fill="#000000" transform="translate(208,80)"/>
<path d="M0 0 C2 1 2 1 2 1 Z " fill="#000000" transform="translate(150,80)"/>
<path d="" fill="#2A2A2A" transform="translate(0,0)"/>
<path d="" fill="#3F3F3F" transform="translate(0,0)"/>
<path d="" fill="#000000" transform="translate(0,0)"/>
<path d="M0 0 C2 1 2 1 2 1 Z " fill="#3F3F3F" transform="translate(340,71)"/>
<path d="M0 0 C2 1 2 1 2 1 Z " fill="#3F3F3F" transform="translate(233,70)"/>
<path d="M0 0 C2 1 2 1 2 1 Z " fill="#3F3F3F" transform="translate(221,70)"/>
<path d="" fill="#000000" transform="translate(0,0)"/>
<path d="M0 0 C2 1 2 1 2 1 Z " fill="#000000" transform="translate(416,69)"/>
<path d="M0 0 C2 1 2 1 2 1 Z " fill="#000000" transform="translate(219,69)"/>
<path d="M0 0 C2 1 2 1 2 1 Z " fill="#7F7F7F" transform="translate(418,68)"/>
<path d="M0 0 C2 1 2 1 2 1 Z " fill="#7F7F7F" transform="translate(237,68)"/>
<path d="" fill="#3F3F3F" transform="translate(0,0)"/>
<path d="M0 0 C2 1 2 1 2 1 Z " fill="#7F7F7F" transform="translate(162,67)"/>
<path d="M0 0 C2 1 2 1 2 1 Z " fill="#000000" transform="translate(240,66)"/>
<path d="M0 0 C2 1 2 1 2 1 Z " fill="#7F7F7F" transform="translate(340,64)"/>
<path d="" fill="#7F7F7F" transform="translate(0,0)"/>
<path d="" fill="#000000" transform="translate(0,0)"/>
<path d="" fill="#3F3F3F" transform="translate(0,0)"/>
<path d="M0 0 C2 1 2 1 2 1 Z " fill="#000000" transform="translate(322,49)"/>
<path d="M0 0 C2 1 2 1 2 1 Z " fill="#000000" transform="translate(275,48)"/>
<path d="M0 0 C2 1 2 1 2 1 Z " fill="#000000" transform="translate(173,48)"/>
<path d="M0 0 C2 1 2 1 2 1 Z " fill="#3F3F3F" transform="translate(218,47)"/>
<path d="M0 0 C2 1 2 1 2 1 Z " fill="#000000" transform="translate(281,46)"/>
<path d="" fill="#7F7F7F" transform="translate(0,0)"/>
<path d="M0 0 C2 1 2 1 2 1 Z " fill="#000000" transform="translate(207,37)"/>
<path d="M0 0 C2 1 2 1 2 1 Z " fill="#7F7F7F" transform="translate(317,36)"/>
<path d="M0 0 C2 1 2 1 2 1 Z " fill="#000000" transform="translate(239,35)"/>
<path d="M0 0 C2 1 2 1 2 1 Z " fill="#7F7F7F" transform="translate(320,34)"/>
<path d="M0 0 C2 1 2 1 2 1 Z " fill="#000000" transform="translate(298,34)"/>
<path d="M0 0 C2 1 2 1 2 1 Z " fill="#3F3F3F" transform="translate(275,34)"/>
<path d="M0 0 C2 1 2 1 2 1 Z " fill="#7F7F7F" transform="translate(211,34)"/>
<path d="M0 0 C2 1 2 1 2 1 Z " fill="#3F3F3F" transform="translate(151,34)"/>
<path d="M0 0 C2 1 2 1 2 1 Z " fill="#000000" transform="translate(277,33)"/>
<path d="M0 0 C2 1 2 1 2 1 Z " fill="#7F7F7F" transform="translate(213,33)"/>
<path d="M0 0 C2 1 2 1 2 1 Z " fill="#000000" transform="translate(172,33)"/>
<path d="M0 0 C2 1 2 1 2 1 Z " fill="#000000" transform="translate(153,33)"/>
<path d="M0 0 C2 1 2 1 2 1 Z " fill="#3F3F3F" transform="translate(345,32)"/>
<path d="M0 0 C2 1 2 1 2 1 Z " fill="#3F3F3F" transform="translate(279,32)"/>
<path d="M0 0 C2 1 2 1 2 1 Z " fill="#3F3F3F" transform="translate(233,32)"/>
<path d="M0 0 C2 1 2 1 2 1 Z " fill="#3F3F3F" transform="translate(170,32)"/>
<path d="M0 0 C2 1 2 1 2 1 Z " fill="#3F3F3F" transform="translate(155,32)"/>
<path d="" fill="#FFFF00" transform="translate(0,0)"/>
<path d="" fill="#FFFF00" transform="translate(0,0)"/>
<path d="" fill="#FFFF00" transform="translate(0,0)"/>
<path d="" fill="#FFFF00" transform="translate(0,0)"/>
<path d="" fill="#FFFF7F" transform="translate(0,0)"/>
<path d="" fill="#FFFF00" transform="translate(0,0)"/>
<path d="" fill="#7F7F00" transform="translate(0,0)"/>
<path d="" fill="#FF7F00" transform="translate(0,0)"/>
<path d="" fill="#FFFF00" transform="translate(0,0)"/>
<path d="" fill="#FFFF00" transform="translate(0,0)"/>
<path d="" fill="#FFFF00" transform="translate(0,0)"/>
<path d="" fill="#FFFF00" transform="translate(0,0)"/>
<path d="" fill="#FFFF00" transform="translate(0,0)"/>
<path d="" fill="#FFFF00" transform="translate(0,0)"/>
<path d="" fill="#FFFF00" transform="translate(0,0)"/>
<path d="" fill="#FFFF00" transform="translate(0,0)"/>
<path d="" fill="#FFFF00" transform="translate(0,0)"/>
<path d="" fill="#FFFF00" transform="translate(0,0)"/>
<path d="" fill="#FFFF00" transform="translate(0,0)"/>
<path d="" fill="#FF0000" transform="translate(0,0)"/>
<path d="" fill="#7F7F00" transform="translate(0,0)"/>
<path d="" fill="#FF0000" transform="translate(0,0)"/>
<path d="" fill="#000000" transform="translate(0,0)"/>
<path d="" fill="#AAAA55" transform="translate(0,0)"/>
<path d="" fill="#FFFF00" transform="translate(0,0)"/>
<path d="" fill="#FF0000" transform="translate(0,0)"/>
<path d="" fill="#7F0000" transform="translate(0,0)"/>
<path d="" fill="#000000" transform="translate(0,0)"/>
<path d="" fill="#000000" transform="translate(0,0)"/>
<path d="" fill="#7F7F00" transform="translate(0,0)"/>
<path d="" fill="#FFFF00" transform="translate(0,0)"/>
<path d="" fill="#FF0000" transform="translate(0,0)"/>
<path d="" fill="#000000" transform="translate(0,0)"/>
<path d="" fill="#000000" transform="translate(0,0)"/>
<path d="" fill="#FF7F00" transform="translate(0,0)"/>
<path d="" fill="#FF7F00" transform="translate(0,0)"/>
<path d="" fill="#7F0000" transform="translate(0,0)"/>
<path d="" fill="#000000" transform="translate(0,0)"/>
<path d="" fill="#FFFF00" transform="translate(0,0)"/>
<path d="" fill="#FF7F00" transform="translate(0,0)"/>
<path d="" fill="#AA0000" transform="translate(0,0)"/>
<path d="" fill="#000000" transform="translate(0,0)"/>
<path d="" fill="#000000" transform="translate(0,0)"/>
<path d="" fill="#7F7F00" transform="translate(0,0)"/>
<path d="" fill="#FFFF00" transform="translate(0,0)"/>
<path d="" fill="#7F0000" transform="translate(0,0)"/>
<path d="" fill="#000000" transform="translate(0,0)"/>
<path d="" fill="#000000" transform="translate(0,0)"/>
<path d="" fill="#FFFF00" transform="translate(0,0)"/>
<path d="" fill="#FF7F00" transform="translate(0,0)"/>
<path d="" fill="#AA0000" transform="translate(0,0)"/>
<path d="" fill="#555555" transform="translate(0,0)"/>
<path d="" fill="#000000" transform="translate(0,0)"/>
<path d="" fill="#AAAA00" transform="translate(0,0)"/>
<path d="" fill="#FFFF00" transform="translate(0,0)"/>
<path d="" fill="#AA0000" transform="translate(0,0)"/>
<path d="" fill="#FFFF00" transform="translate(0,0)"/>
<path d="" fill="#FFFF7F" transform="translate(0,0)"/>
<path d="" fill="#7F0000" transform="translate(0,0)"/>
<path d="" fill="#FF7F00" transform="translate(0,0)"/>
<path d="" fill="#7F7F00" transform="translate(0,0)"/>
<path d="" fill="#000000" transform="translate(0,0)"/>
<path d="" fill="#FFFF00" transform="translate(0,0)"/>
<path d="" fill="#FF7F00" transform="translate(0,0)"/>
<path d="" fill="#FF7F00" transform="translate(0,0)"/>
<path d="" fill="#AAAA55" transform="translate(0,0)"/>
<path d="" fill="#FFFF00" transform="translate(0,0)"/>
<path d="" fill="#FF7F00" transform="translate(0,0)"/>
<path d="" fill="#FF0000" transform="translate(0,0)"/>
<path d="" fill="#FFFF7F" transform="translate(0,0)"/>
<path d="" fill="#FF7F00" transform="translate(0,0)"/>
<path d="" fill="#7F0000" transform="translate(0,0)"/>
<path d="" fill="#FF7F00" transform="translate(0,0)"/>
<path d="" fill="#FFFF7F" transform="translate(0,0)"/>
<path d="" fill="#000000" transform="translate(0,0)"/>
<path d="" fill="#FFFF00" transform="translate(0,0)"/>
<path d="" fill="#FFFF00" transform="translate(0,0)"/>
<path d="" fill="#FFFF00" transform="translate(0,0)"/>
<path d="" fill="#AAAA00" transform="translate(0,0)"/>
<path d="" fill="#FFFF00" transform="translate(0,0)"/>
<path d="" fill="#000000" transform="translate(0,0)"/>
<path d="" fill="#000000" transform="translate(0,0)"/>
<path d="" fill="#FFFF00" transform="translate(0,0)"/>
<path d="" fill="#FFFF00" transform="translate(0,0)"/>
<path d="" fill="#FFFF00" transform="translate(0,0)"/>
<path d="" fill="#7F0000" transform="translate(0,0)"/>
<path d="" fill="#000000" transform="translate(0,0)"/>
<path d="" fill="#000000" transform="translate(0,0)"/>
<path d="" fill="#FFFF00" transform="translate(0,0)"/>
<path d="" fill="#FF7F00" transform="translate(0,0)"/>
<path d="" fill="#FF7F00" transform="translate(0,0)"/>
<path d="" fill="#FF0000" transform="translate(0,0)"/>
<path d="" fill="#000000" transform="translate(0,0)"/>
<path d="" fill="#000000" transform="translate(0,0)"/>
<path d="" fill="#000000" transform="translate(0,0)"/>
<path d="" fill="#000000" transform="translate(0,0)"/>
<path d="" fill="#FFFF7F" transform="translate(0,0)"/>
<path d="" fill="#FF7F00" transform="translate(0,0)"/>
<path d="" fill="#FF7F00" transform="translate(0,0)"/>
<path d="" fill="#7F7F7F" transform="translate(0,0)"/>
<path d="" fill="#000000" transform="translate(0,0)"/>
<path d="" fill="#000000" transform="translate(0,0)"/>
<path d="" fill="#000000" transform="translate(0,0)"/>
<path d="" fill="#000000" transform="translate(0,0)"/>
<path d="" fill="#000000" transform="translate(0,0)"/>
<path d="" fill="#000000" transform="translate(0,0)"/>
<path d="" fill="#FFFF7F" transform="translate(0,0)"/>
<path d="" fill="#FF7F00" transform="translate(0,0)"/>
<path d="" fill="#FFFF00" transform="translate(0,0)"/>
<path d="" fill="#7F0000" transform="translate(0,0)"/>
<path d="" fill="#000000" transform="translate(0,0)"/>
<path d="" fill="#000000" transform="translate(0,0)"/>
<path d="" fill="#000000" transform="translate(0,0)"/>
<path d="" fill="#000000" transform="translate(0,0)"/>
<path d="" fill="#FFFF7F" transform="translate(0,0)"/>
<path d="" fill="#FFFF00" transform="translate(0,0)"/>
<path d="" fill="#FF7F7F" transform="translate(0,0)"/>
<path d="" fill="#FF0000" transform="translate(0,0)"/>
<path d="" fill="#550000" transform="translate(0,0)"/>
<path d="" fill="#000000" transform="translate(0,0)"/>
<path d="" fill="#000000" transform="translate(0,0)"/>
<path d="" fill="#FFFF00" transform="translate(0,0)"/>
<path d="" fill="#FF7F00" transform="translate(0,0)"/>
<path d="" fill="#FF7F00" transform="translate(0,0)"/>
<path d="" fill="#FF7F7F" transform="translate(0,0)"/>
<path d="" fill="#000000" transform="translate(0,0)"/>
<path d="" fill="#000000" transform="translate(0,0)"/>
<path d="" fill="#7F7F7F" transform="translate(0,0)"/>
<path d="" fill="#000000" transform="translate(0,0)"/>
<path d="" fill="#FFFF00" transform="translate(0,0)"/>
<path d="" fill="#FF7F00" transform="translate(0,0)"/>
<path d="" fill="#FFFF00" transform="translate(0,0)"/>
<path d="" fill="#7F0000" transform="translate(0,0)"/>
<path d="" fill="#000000" transform="translate(0,0)"/>
<path d="" fill="#000000" transform="translate(0,0)"/>
<path d="" fill="#555555" transform="translate(0,0)"/>
<path d="" fill="#7F7F7F" transform="translate(0,0)"/>
<path d="" fill="#FFFF7F" transform="translate(0,0)"/>
<path d="" fill="#FF7F00" transform="translate(0,0)"/>
<path d="" fill="#FF7F00" transform="translate(0,0)"/>
<path d="" fill="#7F7F7F" transform="translate(0,0)"/>
<path d="" fill="#7F0000" transform="translate(0,0)"/>
<path d="" fill="#000000" transform="translate(0,0)"/>
<path d="" fill="#000000" transform="translate(0,0)"/>
<path d="" fill="#555555" transform="translate(0,0)"/>
<path d="" fill="#7F7F7F" transform="translate(0,0)"/>
<path d="" fill="#FFFF7F" transform="translate(0,0)"/>
<path d="" fill="#FF7F00" transform="translate(0,0)"/>
<path d="" fill="#7F7F7F" transform="translate(0,0)"/>
<path d="" fill="#000000" transform="translate(0,0)"/>
<path d="" fill="#000000" transform="translate(0,0)"/>
<path d="" fill="#FFFF00" transform="translate(0,0)"/>
<path d="" fill="#FFFF00" transform="translate(0,0)"/>
<path d="" fill="#FF0000" transform="translate(0,0)"/>
<path d="" fill="#000000" transform="translate(0,0)"/>
<path d="" fill="#000000" transform="translate(0,0)"/>
<path d="" fill="#FFFF7F" transform="translate(0,0)"/>
<path d="" fill="#FF7F00" transform="translate(0,0)"/>
<path d="" fill="#FFFF00" transform="translate(0,0)"/>
<path d="" fill="#FFFF00" transform="translate(0,0)"/>
<path d="" fill="#550000" transform="translate(0,0)"/>
<path d="" fill="#000000" transform="translate(0,0)"/>
<path d="" fill="#FFFF7F" transform="translate(0,0)"/>
<path d="" fill="#FFFF00" transform="translate(0,0)"/>
<path d="" fill="#FF7F00" transform="translate(0,0)"/>
<path d="" fill="#7F0000" transform="translate(0,0)"/>
<path d="" fill="#7F0000" transform="translate(0,0)"/>
<path d="" fill="#000000" transform="translate(0,0)"/>
<path d="" fill="#FFFF00" transform="translate(0,0)"/>
<path d="" fill="#FF7F00" transform="translate(0,0)"/>
<path d="" fill="#FFFF7F" transform="translate(0,0)"/>
<path d="" fill="#7F0000" transform="translate(0,0)"/>
<path d="" fill="#550000" transform="translate(0,0)"/>
<path d="" fill="#000000" transform="translate(0,0)"/>
<path d="" fill="#FFFF00" transform="translate(0,0)"/>
<path d="" fill="#7F7F00" transform="translate(0,0)"/>
<path d="" fill="#7F7F00" transform="translate(0,0)"/>
<path d="" fill="#7F0000" transform="translate(0,0)"/>
<path d="" fill="#550000" transform="translate(0,0)"/>
<path d="" fill="#000000" transform="translate(0,0)"/>
<path d="" fill="#FFFF00" transform="translate(0,0)"/>
<path d="" fill="#7F0000" transform="translate(0,0)"/>
<path d="" fill="#AA0000" transform="translate(0,0)"/>
<path d="" fill="#000000" transform="translate(0,0)"/>
<path d="" fill="#FFFF7F" transform="translate(0,0)"/>
<path d="" fill="#7F0000" transform="translate(0,0)"/>
<path d="" fill="#AA0000" transform="translate(0,0)"/>
<path d="" fill="#000000" transform="translate(0,0)"/>
<path d="" fill="#000000" transform="translate(0,0)"/>
<path d="" fill="#7F7F00" transform="translate(0,0)"/>
<path d="" fill="#7F0000" transform="translate(0,0)"/>
<path d="" fill="#7F0000" transform="translate(0,0)"/>
<path d="" fill="#000000" transform="translate(0,0)"/>
<path d="" fill="#000000" transform="translate(0,0)"/>
<path d="" fill="#FFFF00" transform="translate(0,0)"/>
<path d="" fill="#7F7F7F" transform="translate(0,0)"/>
<path d="" fill="#7F0000" transform="translate(0,0)"/>
<path d="" fill="#000000" transform="translate(0,0)"/>
<path d="" fill="#7F7F7F" transform="translate(0,0)"/>
<path d="" fill="#000000" transform="translate(0,0)"/>
<path d="" fill="#000000" transform="translate(0,0)"/>
<path d="" fill="#FF7F7F" transform="translate(0,0)"/>
<path d="" fill="#7F0000" transform="translate(0,0)"/>
<path d="" fill="#AA0000" transform="translate(0,0)"/>
<path d="" fill="#000000" transform="translate(0,0)"/>
<path d="" fill="#7F7F7F" transform="translate(0,0)"/>
<path d="" fill="#FF7F7F" transform="translate(0,0)"/>
<path d="" fill="#7F0000" transform="translate(0,0)"/>
<path d="" fill="#AA0000" transform="translate(0,0)"/>
<path d="" fill="#FFFF00" transform="translate(0,0)"/>
<path d="" fill="#7F7F00" transform="translate(0,0)"/>
<path d="" fill="#550000" transform="translate(0,0)"/>
<path d="" fill="#FFFF7F" transform="translate(0,0)"/>
<path d="" fill="#7F0000" transform="translate(0,0)"/>
<path d="" fill="#AA0000" transform="translate(0,0)"/>
<path d="" fill="#7F7F7F" transform="translate(0,0)"/>
<path d="" fill="#FFFF00" transform="translate(0,0)"/>
<path d="" fill="#7F7F00" transform="translate(0,0)"/>
<path d="" fill="#7F0000" transform="translate(0,0)"/>
<path d="" fill="#7F7F7F" transform="translate(0,0)"/>
<path d="" fill="#7F7F00" transform="translate(0,0)"/>
<path d="" fill="#7F7F7F" transform="translate(0,0)"/>
<path d="" fill="#7F0000" transform="translate(0,0)"/>
<path d="" fill="#000000" transform="translate(0,0)"/>
<path d="" fill="#FFFF7F" transform="translate(0,0)"/>
<path d="" fill="#7F0000" transform="translate(0,0)"/>
<path d="" fill="#AA0000" transform="translate(0,0)"/>
<path d="" fill="#000000" transform="translate(0,0)"/>
<path d="" fill="#FF7F7F" transform="translate(0,0)"/>
<path d="" fill="#7F0000" transform="translate(0,0)"/>
<path d="" fill="#AA0000" transform="translate(0,0)"/>
<path d="" fill="#FFFF00" transform="translate(0,0)"/>
<path d="" fill="#AA0000" transform="translate(0,0)"/>
<path d="" fill="#FF0000" transform="translate(0,0)"/>
<path d="" fill="#7F7F7F" transform="translate(0,0)"/>
<path d="" fill="#FFFF7F" transform="translate(0,0)"/>
<path d="" fill="#7F0000" transform="translate(0,0)"/>
<path d="" fill="#AA5555" transform="translate(0,0)"/>
<path d="" fill="#FFFF00" transform="translate(0,0)"/>
<path d="" fill="#7F0000" transform="translate(0,0)"/>
<path d="" fill="#550000" transform="translate(0,0)"/>
<path d="" fill="#FF7F00" transform="translate(0,0)"/>
<path d="" fill="#7F7F7F" transform="translate(0,0)"/>
<path d="" fill="#AA0000" transform="translate(0,0)"/>
<path d="" fill="#7F7F7F" transform="translate(0,0)"/>
<path d="" fill="#FFFF7F" transform="translate(0,0)"/>
<path d="" fill="#AA0000" transform="translate(0,0)"/>
<path d="" fill="#550000" transform="translate(0,0)"/>
<path d="" fill="#7F7F7F" transform="translate(0,0)"/>
<path d="" fill="#7F7F00" transform="translate(0,0)"/>
<path d="" fill="#7F0000" transform="translate(0,0)"/>
<path d="" fill="#AA0000" transform="translate(0,0)"/>
<path d="" fill="#555555" transform="translate(0,0)"/>
<path d="" fill="#FFFF00" transform="translate(0,0)"/>
<path d="" fill="#7F7F7F" transform="translate(0,0)"/>
<path d="" fill="#7F0000" transform="translate(0,0)"/>
<path d="" fill="#FF7F7F" transform="translate(0,0)"/>
<path d="" fill="#AA0000" transform="translate(0,0)"/>
<path d="" fill="#AA0000" transform="translate(0,0)"/>
<path d="" fill="#7F7F7F" transform="translate(0,0)"/>
<path d="" fill="#FFFFFF" transform="translate(0,0)"/>
<path d="" fill="#7F7F00" transform="translate(0,0)"/>
<path d="" fill="#AA5555" transform="translate(0,0)"/>
<path d="" fill="#000000" transform="translate(0,0)"/>
<path d="" fill="#FFFF00" transform="translate(0,0)"/>
<path d="" fill="#AA5555" transform="translate(0,0)"/>
<path d="" fill="#7F0000" transform="translate(0,0)"/>
<path d="" fill="#000000" transform="translate(0,0)"/>
<path d="" fill="#000000" transform="translate(0,0)"/>
<path d="" fill="#000000" transform="translate(0,0)"/>
<path d="" fill="#FFFF7F" transform="translate(0,0)"/>
<path d="" fill="#AA0000" transform="translate(0,0)"/>
<path d="" fill="#AA5500" transform="translate(0,0)"/>
<path d="" fill="#000000" transform="translate(0,0)"/>
<path d="" fill="#000000" transform="translate(0,0)"/>
<path d="" fill="#7F7F7F" transform="translate(0,0)"/>
<path d="" fill="#7F0000" transform="translate(0,0)"/>
<path d="" fill="#550000" transform="translate(0,0)"/>
<path d="" fill="#FFFF00" transform="translate(0,0)"/>
<path d="" fill="#AA0000" transform="translate(0,0)"/>
<path d="" fill="#550000" transform="translate(0,0)"/>
<path d="" fill="#FFFFFF" transform="translate(0,0)"/>
<path d="" fill="#FFFF7F" transform="translate(0,0)"/>
<path d="" fill="#7F0000" transform="translate(0,0)"/>
<path d="" fill="#AA0055" transform="translate(0,0)"/>
<path d="" fill="#FFFF00" transform="translate(0,0)"/>
<path d="" fill="#7F0000" transform="translate(0,0)"/>
<path d="" fill="#AA0000" transform="translate(0,0)"/>
<path d="" fill="#FFFF00" transform="translate(0,0)"/>
<path d="" fill="#AA5555" transform="translate(0,0)"/>
<path d="" fill="#7F0000" transform="translate(0,0)"/>
<path d="" fill="#7F7F7F" transform="translate(0,0)"/>
<path d="" fill="#AA0000" transform="translate(0,0)"/>
<path d="" fill="#AA0000" transform="translate(0,0)"/>
<path d="" fill="#7F0000" transform="translate(0,0)"/>
<path d="" fill="#AA0000" transform="translate(0,0)"/>
<path d="" fill="#000000" transform="translate(0,0)"/>
<path d="" fill="#FF7F00" transform="translate(0,0)"/>
<path d="" fill="#7F0000" transform="translate(0,0)"/>
<path d="" fill="#000000" transform="translate(0,0)"/>
<path d="" fill="#555555" transform="translate(0,0)"/>
<path d="" fill="#555555" transform="translate(0,0)"/>
<path d="" fill="#FF7F7F" transform="translate(0,0)"/>
<path d="" fill="#AA0000" transform="translate(0,0)"/>
<path d="" fill="#AA5555" transform="translate(0,0)"/>
<path d="" fill="#000000" transform="translate(0,0)"/>
<path d="" fill="#000000" transform="translate(0,0)"/>
<path d="" fill="#555555" transform="translate(0,0)"/>
<path d="" fill="#FFFF00" transform="translate(0,0)"/>
<path d="" fill="#7F0000" transform="translate(0,0)"/>
<path d="" fill="#AA5555" transform="translate(0,0)"/>
<path d="" fill="#000000" transform="translate(0,0)"/>
<path d="" fill="#000000" transform="translate(0,0)"/>
<path d="" fill="#000000" transform="translate(0,0)"/>
<path d="" fill="#000000" transform="translate(0,0)"/>
<path d="" fill="#FFFF00" transform="translate(0,0)"/>
<path d="" fill="#FF0000" transform="translate(0,0)"/>
<path d="" fill="#7F0000" transform="translate(0,0)"/>
<path d="" fill="#555555" transform="translate(0,0)"/>
<path d="" fill="#000000" transform="translate(0,0)"/>
<path d="" fill="#7F7F7F" transform="translate(0,0)"/>
<path d="" fill="#000000" transform="translate(0,0)"/>
<path d="" fill="#000000" transform="translate(0,0)"/>
<path d="" fill="#7F7F7F" transform="translate(0,0)"/>
<path d="" fill="#AA0000" transform="translate(0,0)"/>
<path d="" fill="#AA5555" transform="translate(0,0)"/>
<path d="" fill="#7F7F7F" transform="translate(0,0)"/>
<path d="" fill="#000000" transform="translate(0,0)"/>
<path d="" fill="#000000" transform="translate(0,0)"/>
<path d="" fill="#000000" transform="translate(0,0)"/>
<path d="" fill="#000000" transform="translate(0,0)"/>
<path d="" fill="#550000" transform="translate(0,0)"/>
<path d="" fill="#FF7F7F" transform="translate(0,0)"/>
<path d="" fill="#000000" transform="translate(0,0)"/>
<path d="" fill="#000000" transform="translate(0,0)"/>
<path d="" fill="#000000" transform="translate(0,0)"/>
<path d="" fill="#7F7F7F" transform="translate(0,0)"/>
<path d="" fill="#000000" transform="translate(0,0)"/>
<path d="" fill="#550000" transform="translate(0,0)"/>
<path d="" fill="#7F0000" transform="translate(0,0)"/>
<path d="" fill="#000000" transform="translate(0,0)"/>
<path d="" fill="#000000" transform="translate(0,0)"/>
<path d="" fill="#FF7F7F" transform="translate(0,0)"/>
<path d="" fill="#AA0000" transform="translate(0,0)"/>
<path d="" fill="#AA5555" transform="translate(0,0)"/>
<path d="" fill="#000000" transform="translate(0,0)"/>
<path d="" fill="#000000" transform="translate(0,0)"/>
<path d="" fill="#FFFFFF" transform="translate(0,0)"/>
<path d="" fill="#7F0000" transform="translate(0,0)"/>
<path d="" fill="#FF0000" transform="translate(0,0)"/>
<path d="" fill="#FFFFFF" transform="translate(0,0)"/>
<path d="" fill="#AA0000" transform="translate(0,0)"/>
<path d="" fill="#7F0000" transform="translate(0,0)"/>
<path d="" fill="#FF7F7F" transform="translate(0,0)"/>
<path d="" fill="#AA0000" transform="translate(0,0)"/>
<path d="" fill="#AA5555" transform="translate(0,0)"/>
<path d="" fill="#FFFFFF" transform="translate(0,0)"/>
<path d="" fill="#7F0000" transform="translate(0,0)"/>
<path d="" fill="#AA5555" transform="translate(0,0)"/>
<path d="" fill="#FFFFFF" transform="translate(0,0)"/>
<path d="" fill="#AA0000" transform="translate(0,0)"/>
<path d="" fill="#7F0000" transform="translate(0,0)"/>
<path d="" fill="#FFFF7F" transform="translate(0,0)"/>
<path d="" fill="#AA0000" transform="translate(0,0)"/>
<path d="" fill="#FF7F00" transform="translate(0,0)"/>
<path d="" fill="#000000" transform="translate(0,0)"/>
<path d="" fill="#7F0000" transform="translate(0,0)"/>
<path d="" fill="#FF7F7F" transform="translate(0,0)"/>
<path d="" fill="#000000" transform="translate(0,0)"/>
<path d="" fill="#AA0000" transform="translate(0,0)"/>
<path d="" fill="#7F0000" transform="translate(0,0)"/>
<path d="" fill="#7F7F7F" transform="translate(0,0)"/>
<path d="" fill="#FFFFFF" transform="translate(0,0)"/>
<path d="" fill="#AA0000" transform="translate(0,0)"/>
<path d="" fill="#AA5555" transform="translate(0,0)"/>
<path d="" fill="#000000" transform="translate(0,0)"/>
<path d="" fill="#FF7F7F" transform="translate(0,0)"/>
<path d="" fill="#000000" transform="translate(0,0)"/>
<path d="" fill="#AA5555" transform="translate(0,0)"/>
<path d="" fill="#FFFF00" transform="translate(0,0)"/>
<path d="" fill="#AA0000" transform="translate(0,0)"/>
<path d="" fill="#7F0000" transform="translate(0,0)"/>
<path d="" fill="#FFFFFF" transform="translate(0,0)"/>
<path d="" fill="#7F0000" transform="translate(0,0)"/>
<path d="" fill="#FF7F7F" transform="translate(0,0)"/>
<path d="" fill="#000000" transform="translate(0,0)"/>
<path d="" fill="#FFFFFF" transform="translate(0,0)"/>
<path d="" fill="#7F0000" transform="translate(0,0)"/>
<path d="" fill="#FF0000" transform="translate(0,0)"/>
<path d="" fill="#000000" transform="translate(0,0)"/>
<path d="" fill="#000000" transform="translate(0,0)"/>
<path d="" fill="#7F0000" transform="translate(0,0)"/>
<path d="" fill="#7F7F7F" transform="translate(0,0)"/>
<path d="" fill="#000000" transform="translate(0,0)"/>
<path d="" fill="#AA5555" transform="translate(0,0)"/>
<path d="" fill="#000000" transform="translate(0,0)"/>
<path d="" fill="#000000" transform="translate(0,0)"/>
<path d="" fill="#7F7F7F" transform="translate(0,0)"/>
<path d="" fill="#000000" transform="translate(0,0)"/>
<path d="" fill="#000000" transform="translate(0,0)"/>
<path d="" fill="#7F0000" transform="translate(0,0)"/>
<path d="" fill="#7F7F7F" transform="translate(0,0)"/>
<path d="" fill="#000000" transform="translate(0,0)"/>
<path d="" fill="#FF7F7F" transform="translate(0,0)"/>
<path d="" fill="#000000" transform="translate(0,0)"/>
<path d="" fill="#000000" transform="translate(0,0)"/>
<path d="" fill="#7F7F7F" transform="translate(0,0)"/>
<path d="" fill="#7F7F7F" transform="translate(0,0)"/>
<path d="" fill="#000000" transform="translate(0,0)"/>
<path d="" fill="#7F0000" transform="translate(0,0)"/>
<path d="" fill="#555555" transform="translate(0,0)"/>
<path d="" fill="#000000" transform="translate(0,0)"/>
<path d="" fill="#7F0000" transform="translate(0,0)"/>
<path d="" fill="#000000" transform="translate(0,0)"/>
<path d="" fill="#000000" transform="translate(0,0)"/>
<path d="" fill="#7F7F7F" transform="translate(0,0)"/>
<path d="" fill="#000000" transform="translate(0,0)"/>
<path d="" fill="#000000" transform="translate(0,0)"/>
<path d="" fill="#FF7F7F" transform="translate(0,0)"/>
<path d="" fill="#000000" transform="translate(0,0)"/>
<path d="" fill="#000000" transform="translate(0,0)"/>
<path d="" fill="#7F7F7F" transform="translate(0,0)"/>
<path d="" fill="#7F0000" transform="translate(0,0)"/>
<path d="" fill="#000000" transform="translate(0,0)"/>
<path d="" fill="#000000" transform="translate(0,0)"/>
<path d="" fill="#555555" transform="translate(0,0)"/>
<path d="" fill="#000000" transform="translate(0,0)"/>
<path d="" fill="#7F7F7F" transform="translate(0,0)"/>
<path d="" fill="#000000" transform="translate(0,0)"/>
<path d="" fill="#FFFFFF" transform="translate(0,0)"/>
<path d="" fill="#FFFFFF" transform="translate(0,0)"/>
</svg>
